<svg version="1.0"
    xmlns="http://www.w3.org/2000/svg" width="867.000000pt" height="720.000000pt" viewBox="0 0 867.000000 720.000000" preserveAspectRatio="xMidYMid meet">

    <g transform="translate(0.000000,720.000000) scale(0.100000,-0.100000)" fill="#D0CECE" stroke="none">
        <path d="M4842 7165 c-17 -18 -39 -59 -51 -90 -23 -62 -28 -100 -5 -45 15 37
14 31 -13 -85 -24 -106 -22 -298 5 -408 25 -100 27 -118 7 -67 -27 70 -14 9
15 -72 35 -97 122 -263 138 -263 6 0 14 -4 19 -9 5 -5 2 -6 -6 -1 -9 5 -12 3
-9 -6 3 -8 10 -14 15 -14 6 0 15 -4 20 -9 5 -5 2 -6 -6 -1 -9 5 -12 3 -9 -6 3
-8 10 -14 15 -14 6 0 15 -4 20 -9 5 -5 2 -6 -6 -1 -9 5 -12 3 -9 -6 3 -8 10
-14 15 -14 6 0 15 -4 20 -9 5 -5 3 -6 -4 -2 -19 11 -16 -9 4 -25 15 -12 16
-12 8 1 -8 13 -7 13 8 1 18 -15 23 -26 7 -16 -17 10 -11 -12 7 -26 15 -12 16
-12 8 1 -5 9 0 8 13 -4 25 -21 31 -36 7 -16 -24 20 -17 -5 7 -26 13 -12 18
-13 13 -4 -5 9 0 8 13 -4 25 -21 31 -36 7 -16 -8 7 -15 9 -15 5 0 -12 122
-147 275 -305 77 -80 172 -179 209 -220 38 -41 65 -68 60 -60 -7 13 -5 13 9 1
18 -15 23 -26 7 -16 -5 3 -10 2 -10 -4 0 -5 5 -13 11 -17 18 -11 69 -127 69
-156 0 -24 -6 -29 -52 -43 -62 -18 -195 -43 -258 -48 l-45 -4 48 -1 c53 -2
217 28 288 53 24 9 39 11 33 5 -19 -19 -205 -60 -323 -71 -131 -12 -247 -7
-536 23 -267 28 -617 30 -720 4 -50 -12 -137 -20 -310 -26 -387 -14 -662 -74
-1002 -221 -65 -28 -163 -69 -218 -90 -214 -85 -435 -229 -635 -413 -24 -22
-33 -28 -20 -12 31 36 204 177 290 238 100 70 232 143 333 183 132 52 327 138
323 143 -2 1 -59 -21 -127 -51 -68 -30 -161 -69 -206 -86 -218 -87 -434 -242
-753 -543 -291 -275 -363 -339 -402 -359 -42 -21 -198 -165 -198 -182 0 -5 8
-3 18 4 14 11 13 10 -2 -9 -21 -24 -32 -29 -20 -9 5 8 2 8 -9 -2 -20 -16 -23
-36 -4 -25 7 4 9 3 4 -2 -5 -5 -14 -9 -19 -9 -6 0 -13 -6 -16 -14 -3 -9 0 -11
9 -6 8 5 11 4 6 -1 -5 -5 -14 -9 -19 -9 -6 0 -13 -6 -16 -14 -3 -9 0 -11 8 -6
9 5 11 4 6 -4 -4 -6 -11 -9 -16 -6 -11 7 -63 -83 -55 -95 4 -6 1 -9 -6 -8 -6
2 -14 -3 -17 -11 -3 -9 0 -11 8 -6 9 5 11 4 6 -4 -4 -6 -11 -9 -16 -6 -5 3
-14 -3 -19 -14 -14 -26 -14 -34 2 -25 7 4 9 3 4 -2 -5 -5 -14 -9 -20 -9 -5 0
-12 -6 -15 -14 -3 -9 0 -11 8 -6 9 5 11 4 6 -4 -4 -6 -11 -9 -15 -6 -5 2 -20
-13 -35 -33 -14 -21 -39 -50 -54 -64 -27 -26 -28 -26 -136 -18 -104 7 -323 -3
-335 -16 -3 -4 21 -3 54 1 73 9 310 9 358 0 32 -6 37 -3 92 57 32 35 49 50 38
33 -12 -16 -37 -46 -57 -64 l-36 -35 -183 3 c-272 3 -409 -28 -509 -117 -28
-26 -48 -40 -43 -32 8 13 6 13 -8 2 -52 -42 -49 -180 7 -290 20 -40 41 -70 46
-67 5 3 12 0 16 -6 4 -8 3 -9 -4 -5 -18 11 -15 -3 9 -40 11 -19 25 -32 29 -29
5 3 12 0 16 -6 4 -8 3 -9 -4 -5 -18 11 -14 -10 5 -25 15 -12 16 -12 8 1 -8 13
-7 13 8 1 18 -15 23 -26 7 -16 -5 3 -10 2 -10 -4 0 -20 177 -186 248 -234 90
-61 218 -112 242 -97 7 4 -9 10 -36 15 -105 15 -240 102 -369 236 -64 67 -62
66 25 -17 97 -91 181 -152 247 -181 51 -21 153 -43 153 -32 0 5 6 9 13 9 6 -1
-4 -14 -23 -31 -34 -29 -68 -47 -235 -123 -44 -21 -100 -56 -125 -79 -33 -31
-37 -33 -15 -8 17 18 48 46 69 62 21 16 34 29 27 29 -7 0 -44 -31 -83 -69 -50
-49 -69 -74 -64 -86 3 -9 2 -13 -4 -10 -12 8 -53 -73 -46 -91 3 -8 2 -13 -3
-10 -19 12 -93 -197 -177 -498 -30 -109 -53 -200 -50 -203 2 -2 7 10 11 27 4
17 9 29 12 27 6 -7 -36 -149 -48 -162 -5 -5 -2 12 7 38 9 27 14 50 12 52 -2 3
-12 -21 -22 -53 -10 -31 -33 -97 -52 -146 -36 -93 -41 -110 -23 -86 9 12 9 11
2 -5 -10 -25 -13 -481 -2 -515 6 -21 8 -22 9 -5 0 11 11 -11 24 -50 13 -38 27
-79 31 -90 5 -11 5 -17 1 -13 -5 4 -19 35 -32 70 -14 35 -22 50 -19 33 11 -53
64 -157 76 -149 8 5 9 3 4 -5 -4 -8 5 -25 24 -45 28 -29 37 -32 101 -34 80 -3
107 7 190 75 33 27 41 32 20 12 -19 -19 -51 -47 -70 -62 -19 -16 -25 -24 -13
-18 29 15 143 120 143 133 0 5 -6 6 -12 2 -9 -5 -9 -2 1 9 16 20 25 22 16 5
-4 -7 5 0 20 16 14 16 24 35 21 43 -3 8 -2 11 4 8 5 -3 14 3 19 14 14 26 14
34 -1 25 -8 -4 -10 -3 -5 2 5 5 14 9 20 9 7 0 12 10 11 22 0 12 3 20 7 18 4
-3 23 34 43 81 35 85 46 124 25 94 -8 -11 -9 -9 -3 10 13 46 33 95 33 83 1 -6
-4 -24 -9 -39 -6 -15 -9 -29 -6 -31 2 -2 33 87 69 199 37 112 87 245 112 296
49 101 51 107 33 96 -7 -4 -8 -3 -4 5 4 6 11 9 16 6 11 -7 33 32 25 45 -3 5 0
12 6 16 7 4 9 3 5 -4 -3 -6 33 28 81 76 177 176 366 235 740 234 197 -1 289
13 370 58 21 12 29 18 18 14 -11 -4 -51 -19 -90 -33 -66 -24 -83 -25 -282 -27
-117 -2 -248 -8 -290 -14 -131 -20 -276 -72 -368 -132 l-30 -20 25 22 c62 54
231 118 375 141 46 7 160 12 269 11 153 0 202 3 261 18 91 23 227 91 330 165
43 31 74 50 67 42 -18 -21 -148 -110 -199 -136 -24 -12 -43 -24 -43 -27 0 -3
26 9 58 26 77 41 214 144 376 284 189 162 215 182 271 200 28 9 57 21 65 27
12 9 11 10 -5 4 -11 -4 -40 -14 -65 -22 -25 -9 -52 -21 -60 -26 -13 -10 -13
-9 0 4 8 9 44 26 80 39 91 31 275 122 479 235 96 54 218 114 271 136 367 145
1238 323 1735 354 88 6 112 4 200 -19 135 -34 287 -60 550 -91 471 -55 631
-94 849 -202 256 -128 437 -187 576 -187 89 0 127 12 164 53 10 11 23 18 28
15 16 -10 38 65 38 131 0 67 -30 152 -50 140 -5 -3 -12 0 -16 6 -4 8 -3 9 4 5
35 -21 1 20 -80 99 l-93 90 80 -85 80 -85 -82 79 c-45 44 -80 82 -78 85 3 2
-2 13 -12 23 -20 23 -9 23 67 3 30 -8 64 -14 75 -14 24 1 -119 37 -155 40 -20
1 -21 2 -6 6 10 3 49 -2 85 -10 36 -9 82 -19 101 -22 19 -4 105 -26 190 -50
303 -86 414 -104 521 -85 79 15 132 41 188 94 24 22 40 34 36 26 -8 -13 -7
-13 8 -1 20 16 23 36 5 25 -9 -6 -9 -3 0 9 16 19 12 160 -5 192 -18 33 -55 63
-108 86 -44 19 -68 22 -225 24 -165 2 -179 3 -235 28 -140 61 -378 157 -403
162 -18 4 -14 0 11 -9 59 -23 305 -125 382 -159 68 -29 74 -30 245 -32 154 -2
182 -5 223 -23 26 -12 47 -23 47 -26 0 -3 -20 4 -45 15 -37 17 -71 20 -222 22
-168 3 -181 5 -238 30 -33 14 -132 56 -219 92 -141 58 -214 81 -461 141 -33 8
-71 24 -85 35 -25 20 -25 20 15 0 22 -11 54 -22 70 -25 18 -4 12 1 -17 11 -25
10 -55 26 -65 36 -11 9 -22 15 -25 12 -7 -7 7 64 17 89 6 15 5 17 -5 11 -9 -6
-11 -4 -6 4 5 7 10 10 14 7 3 -3 24 12 48 34 50 46 126 86 209 112 47 14 51
17 20 12 -43 -6 -145 -50 -198 -85 l-32 -21 25 22 c67 59 177 99 308 110 120
11 177 33 242 93 l45 42 -40 -43 c-43 -47 -77 -68 -140 -88 -22 -7 -31 -13
-20 -13 35 -1 119 45 164 90 74 74 113 184 110 313 -2 54 -3 51 -9 -31 -8 -90
-24 -159 -42 -178 -5 -5 -2 10 7 35 30 84 29 241 -1 368 -4 15 -4 24 0 20 4
-3 14 -39 21 -80 7 -40 14 -59 14 -43 1 36 -25 150 -39 174 -8 12 -9 9 -5 -14
5 -29 5 -28 -9 5 -17 42 -20 61 -5 40 8 -11 9 -9 3 10 -11 40 -74 163 -91 180
-14 13 -15 13 -7 0 7 -13 6 -13 -9 -1 -18 15 -23 26 -7 16 17 -10 11 12 -7 26
-15 12 -16 12 -8 -1 8 -13 7 -13 -8 -1 -18 15 -23 26 -7 16 15 -9 12 1 -10 46
-13 24 -25 37 -32 33 -7 -4 -8 -3 -4 4 9 14 -12 55 -24 47 -5 -3 -12 0 -16 6
-5 8 -3 9 6 4 8 -5 11 -3 8 6 -3 8 -10 14 -15 14 -6 0 -15 4 -20 9 -5 5 -3 6
5 2 6 -4 12 -3 12 2 0 12 -25 33 -32 27 -3 -3 -11 3 -19 12 -13 16 -12 17 4 4
29 -23 18 2 -18 42 -43 45 -60 50 -20 5 16 -18 -12 7 -63 57 -50 49 -92 92
-92 95 0 2 29 -25 65 -60 36 -35 65 -60 65 -54 0 24 -243 220 -325 261 -44 23
-31 12 71 -56 50 -33 97 -68 105 -77 7 -9 -25 12 -71 45 -117 84 -336 191
-510 247 -80 26 -149 51 -154 55 -8 7 36 -6 224 -66 14 -4 22 -4 18 -1 -3 4
-57 24 -119 44 l-113 37 -141 305 c-155 336 -238 496 -255 492 -6 -1 -9 2 -5
7 8 14 -23 73 -35 66 -5 -3 -12 0 -16 6 -4 8 -3 9 4 5 17 -10 15 -2 -9 38 -12
20 -25 34 -29 31 -5 -3 -12 0 -16 6 -5 8 -3 9 6 4 8 -5 11 -3 8 6 -3 8 -10 14
-16 14 -5 0 -14 4 -19 9 -5 5 -2 6 6 1 9 -5 12 -3 9 6 -3 8 -10 14 -16 14 -5
0 -14 4 -19 9 -5 5 -3 6 5 2 18 -11 15 9 -5 25 -15 12 -16 12 -8 -1 8 -13 7
-13 -8 -1 -18 15 -23 26 -7 16 17 -10 11 12 -7 26 -15 12 -16 12 -8 -1 8 -13
7 -13 -8 -1 -18 15 -23 26 -7 16 6 -3 10 -2 10 3 0 21 -141 139 -215 182 -159
90 -317 139 -448 140 -68 0 -153 -16 -162 -30 -3 -5 16 -1 43 7 77 24 226 13
342 -26 107 -36 253 -110 303 -153 26 -22 21 -21 -23 8 -205 135 -458 202
-611 163 -30 -8 -58 -14 -64 -15 -5 0 -23 -7 -39 -15 -28 -13 -30 -12 -69 31
-21 25 -36 38 -31 30 7 -13 5 -13 -9 -1 -18 15 -23 26 -7 16 6 -3 10 -2 10 3
0 12 -25 33 -32 27 -3 -3 -11 2 -19 12 -9 11 -10 14 -1 9 21 -12 13 10 -10 30
-22 19 -23 19 -8 -1 15 -20 14 -20 -8 -1 -23 20 -30 32 -12 21 27 -17 4 17
-45 65 l-55 55 -75 2 c-73 2 -74 1 -103 -32z"/>
    </g>
</svg>
