<svg width="96" height="96"
    xmlns="http://www.w3.org/2000/svg"
    xmlns:xlink="http://www.w3.org/1999/xlink" xml:space="preserve" overflow="hidden">
    <defs>
        <clipPath id="clip0">
            <rect x="775" y="130" width="96" height="96"/>
        </clipPath>
    </defs>
    <g clip-path="url(#clip0)" transform="translate(-775 -130)" fill="#D4D4D4">
        <path d="M812 168.611 836 168.611C837.657 168.611 839 169.954 839 171.611 839 173.268 837.657 174.611 836 174.611L818 174.611C817.448 174.611 817 175.059 817 175.611 817 176.163 817.448 176.611 818 176.611L836 176.611C838.761 176.611 841 174.372 841 171.611 841 168.85 838.761 166.611 836 166.611L812 166.611C810.196 166.626 808.427 167.108 806.866 168.011L778.566 181.611C778.058 181.828 777.822 182.415 778.039 182.923 778.255 183.431 778.843 183.667 779.351 183.451 779.379 183.439 779.406 183.425 779.433 183.411L807.8 169.779C809.073 169.027 810.522 168.624 812 168.611Z" fill="#44546A"/>
        <path d="M863 158.508C862.08 158.488 861.174 158.743 860.4 159.241L843.3 169.041C842.821 169.315 842.654 169.927 842.929 170.406 843.203 170.885 843.815 171.051 844.294 170.777L861.459 160.94C861.917 160.644 862.454 160.493 863 160.508 864.657 160.508 866 161.851 866 163.508 865.96 164.395 865.582 165.233 864.944 165.85L837.523 185.9C836.998 186.295 836.36 186.51 835.703 186.514L817 186.514C806.772 186.514 798.458 189.642 792.292 195.814 791.895 196.198 791.884 196.831 792.267 197.228 792.651 197.625 793.284 197.636 793.681 197.253 793.69 197.245 793.698 197.236 793.706 197.228 799.484 191.448 807.322 188.518 817 188.518L835.7 188.518C836.777 188.514 837.825 188.166 838.691 187.525L866.2 167.418 866.317 167.318C867.366 166.325 867.975 164.954 868.01 163.51 868.007 160.745 865.765 158.506 863 158.508Z" fill="#44546A"/>
    </g>
</svg>