<svg width="96" height="96"
    xmlns="http://www.w3.org/2000/svg"
    xmlns:xlink="http://www.w3.org/1999/xlink" xml:space="preserve" overflow="hidden">
    <defs>
        <clipPath id="clip0">
            <rect x="347" y="186" width="96" height="96"/>
        </clipPath>
    </defs>
    <g clip-path="url(#clip0)" transform="translate(-347 -186)">
        <path d="M413.002 245.927 413.002 243.927 406.002 243.927 406.002 254.927 404.002 254.927 404.002 256.927 423.002 256.927 423.002 222.927 414.561 222.927 412.561 224.927 421.002 224.927 421.002 234.927 405 234.927 405 236.927 421.002 236.927 421.002 243.927 418.002 243.927 418.002 245.927 421.002 245.927 421.002 254.927 408.002 254.927 408.002 245.927 413.002 245.927Z" fill="#44546A"/>
        <path d="M426.561 210.927 424.561 212.927 432 212.927 432 265.927 367.89 265.927C368.988 264.853 369.702 263.447 369.92 261.927L370 260.927 370 212.927 403.478 212.927 405.478 210.927 370 210.927 370 207.927C370 204.061 366.866 200.927 363 200.927 359.134 200.927 356 204.061 356 207.927L356 260.927 356.08 261.927C356.558 265.197 359.258 267.687 362.556 267.9L434 267.927 434 210.927ZM358 207.927C358 205.166 360.239 202.927 363 202.927 365.761 202.927 368 205.166 368 207.927L368 256.037C365.311 253.276 360.892 253.217 358.131 255.906 358.087 255.949 358.043 255.993 358 256.037ZM358 260.927C358 258.166 360.239 255.927 363 255.927 365.761 255.927 368 258.166 368 260.927 368 263.688 365.761 265.927 363 265.927 360.24 265.924 358.003 263.687 358 260.927Z" fill="#44546A"/>
        <path d="M391.5 224.927 393.496 222.927 379 222.927 379 256.927 398.002 256.927 398.002 254.927 396.002 254.927 396.002 243.927 389.002 243.927 389.002 245.927 394.002 245.927 394.002 254.927 381 254.927 381 245.927 384.002 245.927 384.002 243.927 381 243.927 381 237 387.153 237 387.816 235 381 235 381 224.927 391.5 224.927Z" fill="#44546A"/>
        <path d="M390.5 236.43 399.92 233.323 429.365 203.782C430.14 203.101 430.216 201.921 429.535 201.146 429.497 201.102 429.456 201.06 429.414 201.02L425.914 197.52C425.154 196.744 423.909 196.731 423.132 197.491 423.122 197.5 423.113 197.51 423.103 197.52L393.609 227.06ZM424.508 198.942 427.941 202.377 424.866 205.452 421.431 202.017ZM419.683 203.766 420.017 203.431 423.489 206.9 423.142 207.272 401.517 228.9C401.133 227.169 399.774 225.821 398.04 225.452ZM395.359 228.138 395.768 227.728C396.171 227.483 396.633 227.352 397.105 227.35 397.775 227.35 398.416 227.619 398.886 228.096 399.738 228.922 399.869 230.243 399.196 231.221L398.844 231.573 394.667 232.951 393.988 232.272Z" fill="#44546A"/>
    </g>
</svg>