<svg width="96" height="96"
    xmlns="http://www.w3.org/2000/svg"
    xmlns:xlink="http://www.w3.org/1999/xlink" xml:space="preserve" overflow="hidden">
    <defs>
        <clipPath id="clip0">
            <rect x="592" y="312" width="96" height="96"/>
        </clipPath>
    </defs>
    <g clip-path="url(#clip0)" transform="translate(-592 -312)" fill="#D4D4D4">
        <path d="M633 332 605 332C602.24 332.003 600.003 334.24 600 337L600 383C600.003 385.76 602.24 387.997 605 388L633 388C635.76 387.997 637.997 385.76 638 383L638 337C637.997 334.24 635.76 332.003 633 332ZM636 383C636 384.657 634.657 386 633 386L605 386C603.343 386 602 384.657 602 383L602 337C602 335.343 603.343 334 605 334L633 334C634.657 334 636 335.343 636 337Z"/>
        <path d="M619 346C621.209 346 623 344.209 623 342 623 339.791 621.209 338 619 338 616.791 338 615 339.791 615 342 615 344.209 616.791 346 619 346ZM619 340C620.105 340 621 340.895 621 342 621 343.105 620.105 344 619 344 617.895 344 617 343.105 617 342 617 340.895 617.895 340 619 340Z"/>
        <path d="M619 355C611.268 355 605 361.268 605 369 605 376.732 611.268 383 619 383 626.732 383 633 376.732 633 369 632.992 361.271 626.729 355.008 619 355ZM619 381C612.373 381 607 375.627 607 369 607 362.373 612.373 357 619 357 625.627 357 631 362.373 631 369 630.993 375.624 625.624 380.993 619 381Z"/>
        <path d="M619 365C616.791 365 615 366.791 615 369 615 371.209 616.791 373 619 373 621.209 373 623 371.209 623 369 623 366.791 621.209 365 619 365ZM619 371C617.895 371 617 370.105 617 369 617 367.895 617.895 367 619 367 620.105 367 621 367.895 621 369 621 370.105 620.105 371 619 371Z"/>
        <path d="M675 332 647 332C644.24 332.003 642.003 334.24 642 337L642 383C642.003 385.76 644.24 387.997 647 388L675 388C677.76 387.997 679.997 385.76 680 383L680 337C679.997 334.24 677.76 332.003 675 332ZM678 383C678 384.657 676.657 386 675 386L647 386C645.343 386 644 384.657 644 383L644 337C644 335.343 645.343 334 647 334L675 334C676.657 334 678 335.343 678 337Z"/>
        <path d="M661 346C663.209 346 665 344.209 665 342 665 339.791 663.209 338 661 338 658.791 338 657 339.791 657 342 657 344.209 658.791 346 661 346ZM661 340C662.105 340 663 340.895 663 342 663 343.105 662.105 344 661 344 659.895 344 659 343.105 659 342 659 340.895 659.895 340 661 340Z"/>
        <path d="M661 355C653.268 355 647 361.268 647 369 647 376.732 653.268 383 661 383 668.732 383 675 376.732 675 369 674.992 361.271 668.729 355.008 661 355ZM661 381C654.373 381 649 375.627 649 369 649 362.373 654.373 357 661 357 667.627 357 673 362.373 673 369 672.993 375.624 667.625 380.993 661 381Z"/>
        <path d="M661 365C658.791 365 657 366.791 657 369 657 371.209 658.791 373 661 373 663.209 373 665 371.209 665 369 665 366.791 663.209 365 661 365ZM661 371C659.895 371 659 370.105 659 369 659 367.895 659.895 367 661 367 662.105 367 663 367.895 663 369 663 370.105 662.105 371 661 371Z"/>
    </g>
</svg>