<svg width="96" height="96"
    xmlns="http://www.w3.org/2000/svg"
    xmlns:xlink="http://www.w3.org/1999/xlink" xml:space="preserve" overflow="hidden">
    <defs>
        <clipPath id="clip0">
            <rect x="592" y="312" width="96" height="96"/>
        </clipPath>
    </defs>
    <g clip-path="url(#clip0)" transform="translate(-592 -312)" fill="#D4D4D4">
        <path d="M653.126 341.853 650.344 345.388 646.3 343.957 648.389 347.752 645.716 351.38 650.077 350.16 652.663 353.818 652.951 349.348 657.09 347.841 653.045 346.409 653.126 341.853Z"/>
        <path d="M659.6 335.006C664.018 335.006 667.6 331.424 667.6 327.006 667.6 322.588 664.018 319.006 659.6 319.006 655.182 319.006 651.6 322.588 651.6 327.006 651.614 331.419 655.187 334.992 659.6 335.006ZM659.6 321.006C662.914 321.006 665.6 323.692 665.6 327.006 665.6 330.32 662.914 333.006 659.6 333.006 656.321 333.041 653.635 330.411 653.6 327.133 653.599 327.091 653.599 327.048 653.6 327.006 653.601 323.692 656.286 321.004 659.6 321Z"/>
        <path d="M648.972 335.385C639.5 334.574 632.555 335.513 629.118 336.506L594 347.245 594 347.984C594 362.707 600.8 365.384 607.368 367.97 608.262 368.322 609.156 368.67 610.043 369.063 615.227 371.273 617.661 374.486 618.943 380.83L620.394 378.248C619.285 373.192 615.688 369.043 610.841 367.227 609.941 366.832 609.022 366.47 608.105 366.109 601.994 363.705 596.22 361.433 596.006 348.723L629.688 338.423C633.502 337.367 637.443 336.839 641.4 336.855L628.45 343.761C626.603 344.746 625.586 346.794 625.917 348.861L627.817 359.315 627.829 359.4C628.038 361.016 629.132 362.379 630.664 362.934L623.625 376.572 614.014 393.685C613.358 394.823 613.185 396.177 613.534 397.443 613.876 398.685 614.708 399.735 615.84 400.352 616.596 400.773 617.446 400.996 618.312 401 618.729 401 619.145 400.946 619.548 400.839 620.804 400.504 621.867 399.665 622.484 398.521L636.955 372.576 642.673 379.965 634.458 391.195C632.915 393.407 633.457 396.452 635.669 397.995 635.671 397.997 635.674 397.998 635.676 398 637.839 399.439 640.748 398.954 642.328 396.891L652.865 382.422C653.452 381.736 653.801 380.877 653.86 379.976 653.865 379.935 653.868 379.893 653.868 379.852L653.868 379.371C653.845 378.423 653.509 377.508 652.912 376.771 652.882 376.727 652.849 376.686 652.812 376.648L647.379 367.388 659.594 354.239 684.041 332.386C686.006 330.598 686.155 327.557 684.374 325.586 683.509 324.654 682.319 324.09 681.05 324.009 679.78 323.92 678.53 324.363 677.6 325.233L662.67 338.482C658.283 336.775 653.666 335.732 648.972 335.385ZM645.4 366.569C645.387 366.583 645.384 366.601 645.372 366.615 645.33 366.67 645.294 366.729 645.264 366.791 645.232 366.843 645.206 366.899 645.185 366.956 645.169 367.017 645.16 367.079 645.156 367.142 645.146 367.205 645.142 367.268 645.144 367.332 645.152 367.392 645.166 367.451 645.185 367.508 645.2 367.577 645.223 367.644 645.253 367.708 645.261 367.724 645.261 367.743 645.27 367.759L651.138 377.759C651.18 377.832 651.231 377.9 651.291 377.959L651.328 377.997C651.657 378.381 651.847 378.865 651.865 379.371L651.865 379.788C651.849 380.255 651.682 380.704 651.389 381.068 651.352 381.105 651.319 381.145 651.289 381.187L640.725 395.694C639.795 396.902 638.092 397.191 636.816 396.357 635.515 395.458 635.184 393.677 636.075 392.371L644.73 380.539C644.992 380.18 644.986 379.691 644.715 379.339L637.624 370.175C637.579 370.114 637.528 370.059 637.47 370.01 637.381 369.934 637.28 369.874 637.17 369.833 637.034 369.783 636.889 369.762 636.745 369.772 636.6 369.782 636.46 369.824 636.333 369.895 636.229 369.953 636.137 370.028 636.06 370.118 636.012 370.174 635.97 370.236 635.936 370.301L620.736 397.554C620.38 398.221 619.765 398.711 619.036 398.91 618.279 399.1 617.477 398.989 616.8 398.6 616.141 398.241 615.656 397.629 615.457 396.906 615.25 396.154 615.355 395.35 615.747 394.675L625.382 377.521 632.768 363.212C632.808 363.212 632.848 363.212 632.889 363.207 634.066 363.043 635.128 362.415 635.84 361.463 636.041 361.189 636.211 360.893 636.346 360.581 639.726 362.644 643.52 363.934 647.457 364.356ZM638.22 349.936 641.62 348.056C642.11 347.801 642.3 347.197 642.045 346.707 641.79 346.217 641.186 346.027 640.696 346.282 640.682 346.29 640.667 346.298 640.653 346.306L633.83 350.08C633.451 350.289 633.25 350.717 633.33 351.142L634.716 358.431C634.906 359.786 633.962 361.039 632.607 361.23 631.361 361.405 630.181 360.618 629.864 359.4L627.886 348.51C627.699 347.296 628.304 346.097 629.392 345.526L643.792 337.842C644.424 337.497 645.127 337.303 645.846 337.274 651.556 337.271 657.21 338.389 662.489 340.566L663.066 340.803 678.942 326.711C679.476 326.208 680.196 325.952 680.927 326.005 681.687 326.055 682.398 326.395 682.915 326.954 683.938 328.111 683.838 329.877 682.69 330.911L658.19 352.811 650.052 361.57C649.973 361.57 641.943 361.617 636.531 357.26L636.071 354.841Z"/>
    </g>
</svg>